{"title":"Paula Fernandes Part. Leonardo - India (Ao Vivo 2011 720p AC-3)","uid":6541000,"size":157753950,"categoryP":"video","categoryS":"music_videos","magnet":"?xt=urn:btih:33a99295a37c784758273d6d230adc0640f2f043&amp;dn=Paula+Fernandes+Part.+Leonardo+-+India+%28Ao+Vivo+2011+720p+AC-3%29&amp;tr=udp%3A%2F%2Ftracker.openbittorrent.com%3A80&amp;tr=udp%3A%2F%2Fopen.demonii.com%3A1337&amp;tr=udp%3A%2F%2Ftracker.coppersurfer.tk%3A6969&amp;tr=udp%3A%2F%2Fexodus.desync.com%3A6969","seeders":0,"leechers":1,"uploader":"teckweb","files":1,"time":1310688187,"description":"Video \n\nID : 1 \nFormat : AVC \nFormat/Info : Advanced Video Codec \nFormat profile : &lt;a class=&quot;__cf_email__&quot; href=&quot;/cdn-cgi/l/email-protection&quot; data-cfemail=&quot;fdb5949a95bdb1c9d3cc&quot;&gt;[email&amp;#160;protected]&lt;/a&gt;&lt;script cf-hash='f9e31' type=&quot;text/javascript&quot;&gt;\n/* &lt;![CDATA[ */!function(){try{var t=&quot;currentScript&quot;in document?document.currentScript:function(){for(var t=document.getElementsByTagName(&quot;script&quot;),e=t.length;e--;)if(t[e].getAttribute(&quot;cf-hash&quot;))return t[e]}();if(t&amp;&amp;t.previousSibling){var e,r,n,i,c=t.previousSibling,a=c.getAttribute(&quot;data-cfemail&quot;);if(a){for(e=&quot;&quot;,r=parseInt(a.substr(0,2),16),n=2;a.length-n;n+=2)i=parseInt(a.substr(n,2),16)^r,e+=String.fromCharCode(i);e=document.createTextNode(e),c.parentNode.replaceChild(e,c)}}}catch(u){}}();/* ]]&gt; */&lt;/script&gt; \nFormat settings, CABAC : Yes \nFormat settings, ReFrames : 3 frames \nCodec ID : V_MPEG4/ISO/AVC \nDuration : 3mn 35s \nBit rate mode : Variable \nBit rate : 5 093 Kbps \nMaximum bit rate : 40.0 Mbps \nWidth : 1 280 pixels \nHeight : 720 pixels \nDisplay aspect ratio : 16:9 \nFrame rate : 23.976 fps \nColor space : YUV \nChroma subsampling : 4:2:0 \nBit depth : 8 bits \nScan type : Progressive \nBits/(Pixel*Frame) : 0.230 \nStream size : 131 MiB (87%) \nLanguage : English \nColor primaries : BT.709-5, BT.1361, IEC 61966-2-4, SMPTE RP177 \nTransfer characteristics : BT.709-5, BT.1361 \nMatrix coefficients : BT.709-5, BT.1361, IEC 61966-2-4 709, SMPTE RP177 \n\nAudio \n\nID : 2 \nFormat : AC-3 \nFormat/Info : Audio Coding 3 \nMode extension : CM (complete main) \nCodec ID : A_AC3 \nDuration : 3mn 35s \nBit rate mode : Constant \nBit rate : 640 Kbps \nChannel(s) : 6 channels \nChannel positions : Front: L C R, Side: L R, LFE \nSampling rate : 48.0 KHz \nBit depth : 16 bits \nCompression mode : Lossy \nStream size : 16.5 MiB (11%) \nLanguage : Portuguese \n\n\nCONTINUE SEMEANDO (SEED) AO TERMINAR!\n\n","torrent":{"xt":"urn:btih:33a99295a37c784758273d6d230adc0640f2f043","amp;dn":"Paula+Fernandes+Part.+Leonardo+-+India+%28Ao+Vivo+2011+720p+AC-3%29","amp;tr":["udp%3A%2F%2Ftracker.openbittorrent.com%3A80","udp%3A%2F%2Fopen.demonii.com%3A1337","udp%3A%2F%2Ftracker.coppersurfer.tk%3A6969","udp%3A%2F%2Fexodus.desync.com%3A6969"],"infoHash":"33a99295a37c784758273d6d230adc0640f2f043","infoHashBuffer":{"type":"Buffer","data":[51,169,146,149,163,124,120,71,88,39,61,109,35,10,220,6,64,242,240,67]},"announce":[],"urlList":[]}}